<?xml version="1.0" encoding="UTF-8"?><svg xmlns="http://www.w3.org/2000/svg" xmlns:xlink="http://www.w3.org/1999/xlink" contentScriptType="text/ecmascript" width="503.86192468619254px" zoomAndPan="magnify" contentStyleType="text/css" viewBox="0.0 0.0 503.86192468619254 505.58158995815904" height="505.58158995815904px" preserveAspectRatio="none" version="1.0">
  <g>
    <defs>
      <path d="M504.99305195189925 394.1256821125622 L504.99305195189925 18.365672346937174 C504.99305195189925 13.908672568189616 503.2235519347331 9.635172125684733 500.0750517306468 6.482671973096842 C496.92275184966536 3.334271904813761 492.64925188399764 1.5646717518444007 488.1960520205638 1.5646717518444007 L30.676063006891923 1.5646717518444007 C26.22296280242415 1.5646717518444007 21.949463313593583 3.3341717690105384 18.797063296808915 6.482671973096842 C15.648663228525834 9.634971854078287 13.879063075556473 13.908471819746012 13.879063075556473 18.365672346937174 L13.879063075556473 483.1656601399059 L13.879063075556473 483.16175413996604 C13.879063075556473 487.8219542589846 15.808763092531876 492.27115393549826 19.214962905420975 495.44675398737814 C22.621162837519364 498.62645388514426 27.195463126673417 500.2475538340273 31.839962905420975 499.92335415751364 C36.48836273528548 499.6030441609087 40.79306310988875 497.3647542086306 43.726962989344315 493.7475543108645 L110.92596048690291 410.9235568133059 L488.1959495005748 410.9235568133059 C492.64904970504256 410.9235568133059 496.9225491938731 409.15405679613974 500.0749492106578 406.00165701777365 C503.2233492789409 402.85325694949057 504.99294943191023 398.5797572222414 504.99294943191023 394.12265730769064 Z M471.3910507617137 377.3246815174694 L102.6310409960887 377.3246815174694 C97.5685409960887 377.3246815174694 92.77554077483626 379.60988163648796 89.58404106475325 383.543481585371 L47.47104210235091 435.56648039518547 L47.47104210235091 35.16648649870109 L471.3910555300853 35.16648649870109 Z " id="s-Path_1-d1224"/>
      <path d="M242.6330666003367 173.31569981275743 L276.23506779052224 173.31569981275743 L276.23506779052224 314.9956924885387 L242.6330666003367 314.9956924885387 Z " id="s-Path_2-d1224"/>
      <path d="M242.6330666003367 100.51569676099956 L276.23506779052224 100.51569676099956 L276.23506779052224 141.3946983784312 L242.6330666003367 141.3946983784312 Z " id="s-Path_3-d1224"/>
      <path d="M-1.800944859013839 613.6406967609996 C-2.769694859013839 614.1406967609996 -3.7814448418477014 614.5156967609996 -4.832144791112228 614.7656967609996 C-5.87514477394609 615.0235067576045 -6.968844706044479 615.1563167542095 -8.113344723210616 615.1563167542095 C-11.511744791493697 615.1563167542095 -14.203144604192062 614.2110067576045 -16.19144492767839 612.3125166863078 C-18.183644944653793 610.4063166350002 -19.175844961629195 607.8281168907756 -19.175844961629195 604.5781168907756 C-19.175844961629195 601.3203167885417 -18.183654958234115 598.7422170609111 -16.19144492767839 596.8437170952434 C-14.20314496181993 594.9375170439357 -11.511745029912277 593.9843170612926 -8.113344723210616 593.9843170612926 C-6.968844706044479 593.9843170612926 -5.875044638142867 594.1171270578975 -4.832144791112228 594.3749370545024 C-3.7813448252537682 594.6249370545024 -2.7696447911122277 594.9999370545024 -1.800944859013839 595.4999370545024 L-1.800944859013839 599.718737122404 C-2.7814148607113793 599.062487122404 -3.746244842038436 598.5781371563548 -4.691544825063033 598.2656371563548 C-5.640764826760574 597.9531371563548 -6.640744859204574 597.7968871563548 -7.691544825063033 597.7968871563548 C-9.566544825063033 597.7968871563548 -11.043144756779952 598.4023571580524 -12.11344462059526 599.6093871563548 C-13.1876446547368 600.8085871904964 -13.722844654546066 602.4648871391887 -13.722844654546066 604.5781872242565 C-13.722844654546066 606.6836872070903 -13.187684649453445 608.3398871391887 -12.11344462059526 609.5469872921581 C-11.043144637570663 610.7461873262996 -9.566544586644454 611.3438873261089 -7.691544825063033 611.3438873261089 C-6.640744859204574 611.3438873261089 -5.640744739995284 611.1954473227138 -4.691544825063033 610.890767332899 C-3.746234828458114 610.578267332899 -2.7813448252537682 610.0899873345966 -1.800944859013839 609.4219673842067 Z " id="s-Path_4-d1224"/>
      <path d="M13.71783584929915 603.6246969669932 C13.28033584929915 603.4293869703882 12.84674585439177 603.2809469669932 12.420935815348344 603.1871969669932 C12.002965813650803 603.0856369703882 11.581095820440964 603.0309469669932 11.15533584929915 603.0309469669932 C9.893635815157609 603.0309469669932 8.924835866465287 603.4371969669932 8.24913591720076 604.2497469156855 C7.56944591380568 605.0544369190806 7.233535951151566 606.2028468817347 7.233535951151566 607.7028468817347 L7.233535951151566 614.7653468817347 L2.342935746683793 614.7653468817347 L2.342935746683793 599.4533466070765 L7.233535951151566 599.4533466070765 L7.233535951151566 601.9689465731257 C7.858535951151566 600.9689465731257 8.577335899843888 600.2423465221995 9.389735883249955 599.7814465731257 C10.210045879854874 599.3126965731257 11.190535849108414 599.0783265799158 12.327235883249955 599.0783265799158 C12.491295879854874 599.0783265799158 12.670985883249955 599.0900455795103 12.858485883249955 599.1095765799158 C13.053795879854874 599.1212955795103 13.335045879854874 599.1486385807269 13.702235883249955 599.1877015799158 Z " id="s-Path_5-d1224"/>
      <path d="M31.43343014098616 607.0625965565318 L31.43343014098616 608.4687966078395 L19.98043007232161 608.4687966078395 C20.10543007232161 609.6171965569133 20.51949006892653 610.4765967100734 21.23043007232161 611.0468965738887 C21.93746007062407 611.6211165755863 22.933530038370805 611.9062765806789 24.214830106272416 611.9062765806789 C25.246030157580094 611.9062765806789 26.296830123438554 611.7578365772838 27.371030038370805 611.453156587469 C28.453030055536942 611.140656587469 29.562430089487748 610.679716584074 30.69913000442 610.0625566214198 L30.69913000442 613.828156587469 C29.54292995311232 614.265656587469 28.38663000442 614.5937765806789 27.230329936518388 614.8125365942592 C26.07412988521071 615.0390965908641 24.917829936518388 615.1562865942592 23.761529868616776 615.1562865942592 C20.988129800333695 615.1562865942592 18.831829970850663 614.4531666010494 17.292729800715165 613.0468865603084 C15.761529749407487 611.6406865090007 14.99582976676436 609.6679865091915 14.99582976676436 607.1249867647762 C14.99582976676436 604.6249867647762 15.74973977185698 602.6640869349117 17.261429732813554 601.2343865603084 C18.76922971583815 599.7968865603084 20.84342974997969 599.07818662821 23.480229800715165 599.07818662821 C25.886429732813554 599.07818662821 27.812229579462723 599.8086566299075 29.261429732813554 601.26568662821 C30.70672971583815 602.7148866623515 31.43332976676436 604.6484867304439 31.43332976676436 607.0625864237422 Z M26.402230208887772 605.4375965565318 C26.402230208887772 604.5118165582294 26.12879020549269 603.765696522581 25.589730208887772 603.203196522581 C25.046760207190232 602.6328865259761 24.339730208887772 602.3438165157909 23.464730208887772 602.3438165157909 C22.515510207190232 602.3438165157909 21.74593026019545 602.6094365090007 21.152230208887772 603.140696522581 C20.558530157580094 603.6719565361614 20.187390213980393 604.4375965565318 20.042830174936967 605.4375965565318 Z " id="s-Path_6-d1224"/>
      <path d="M41.99951023436995 607.8750965565318 C40.97611028529616 607.8750965565318 40.20651025153609 608.046976563322 39.68701023436995 608.3907165497417 C39.17529023267241 608.7344665497417 38.92139024116011 609.2461865514392 38.92139024116011 609.9219166010494 C38.92139024116011 610.5469166010494 39.12842023946257 611.0391166180248 39.54639024116011 611.3907165497417 C39.96045023776503 611.7344665497417 40.53467023946257 611.9063365429515 41.26519018985243 611.9063365429515 C42.19097018815489 611.9063365429515 42.96829015590163 611.5782165497417 43.59329015590163 610.9219565361614 C44.22610015250655 610.2578965395564 44.546410149111466 609.429756519186 44.546410149111466 608.4375565022106 L44.546410149111466 607.8750565022106 Z M49.46831030227156 606.0312966078395 L49.46831030227156 614.7656964033717 L44.546410506739335 614.7656964033717 L44.546410506739335 612.5000964373226 C43.890160506739335 613.4297864407176 43.14801055766554 614.1055964201564 42.32761043883772 614.5312963694209 C41.50339043714018 614.9453563660259 40.50341040469618 615.1562963694209 39.32761043883772 615.1562963694209 C37.74171048976393 615.1562963694209 36.45651048995467 614.6992663711185 35.46821040488692 613.7812963694209 C34.47602040149184 612.8555163711185 33.98381037093611 611.652396318304 33.98381037093611 610.1718963354701 C33.98381037093611 608.3827962845439 34.59709036923857 607.0702964037532 35.827610319628434 606.2343963354701 C37.06591028548689 605.3906463354701 39.00731021739455 604.9687963694209 41.65571052409621 604.9687963694209 L44.5463104901454 604.9687963694209 L44.5463104901454 604.5781763762111 C44.5463104901454 603.8086463779086 44.23772049523802 603.246176359045 43.62443048335524 602.8906763762111 C43.00724047996016 602.5273963779086 42.05413050033064 602.3437963694209 40.765030449404435 602.3437963694209 C39.71033043242903 602.3437963694209 38.733830517306046 602.4492663711185 37.827530449404435 602.6562963694209 C36.929090446009354 602.867236372816 36.09703046657057 603.179736372816 35.327530449404435 603.5937963694209 L35.327530449404435 599.8593963354701 C36.36663050033064 599.6093963354701 37.413430517687516 599.4179863303775 38.46813041545363 599.2812763422603 C39.53063041545363 599.1484663456554 40.59313041545363 599.0781563490505 41.65563041545363 599.0781563490505 C44.413430517687516 599.0781563490505 46.40563041545363 599.6250363558406 47.62443048335524 600.7187563150997 C48.85103053428145 601.8046562641734 49.46823043204756 603.5742562979335 49.46823043204756 606.0312563150997 Z " id="s-Path_7-d1224"/>
      <path d="M59.37834209777327 595.1096966236705 L59.37834209777327 599.4534966915721 L64.4252418933055 599.4534966915721 L64.4252418933055 602.9534966915721 L59.37834209777327 602.9534966915721 L59.37834209777327 609.4534966915721 C59.37834209777327 610.1644366949672 59.51896209098311 610.6409966915721 59.80022210456343 610.8909966915721 C60.081482118143754 611.1409966915721 60.63616210795851 611.2659966915721 61.47212213851424 611.2659966915721 L63.98772210456343 611.2659966915721 L63.98772210456343 614.7659966915721 L59.80022210456343 614.7659966915721 C57.86272210456343 614.7659966915721 56.48772210456343 614.367556688177 55.67522210456343 613.5628967255229 C54.87053210116835 612.7503967255229 54.47212213851424 611.3831968277568 54.47212213851424 609.4534969299907 L54.47212213851424 602.9534969299907 L52.05022210456343 602.9534969299907 L52.05022210456343 599.4534969299907 L54.47212213851424 599.4534969299907 L54.47212213851424 595.1096968620891 Z " id="s-Path_8-d1224"/>
      <path d="M82.7029613909861 607.0625965565318 L82.7029613909861 608.4687966078395 L71.24996132232155 608.4687966078395 C71.37496132232155 609.6171965569133 71.78902131892647 610.4765967100734 72.49996132232155 611.0468965738887 C73.20699132062401 611.6211165755863 74.20306128837075 611.9062765806789 75.48436135627236 611.9062765806789 C76.51556140758004 611.9062765806789 77.5663613734385 611.7578365772838 78.64056128837075 611.453156587469 C79.72256130553689 611.140656587469 80.83196133948769 610.679716584074 81.96866125441994 610.0625566214198 L81.96866125441994 613.828156587469 C80.81246120311226 614.265656587469 79.65616125441994 614.5937765806789 78.49986118651833 614.8125365942592 C77.34366113521065 615.0390965908641 76.18736118651833 615.1562865942592 75.03106111861672 615.1562865942592 C72.25766105033364 615.1562865942592 70.1013612208506 614.4531666010494 68.56226105071511 613.0468865603084 C67.03106099940743 611.6406865090007 66.2653610167643 609.6679865091915 66.2653610167643 607.1249867647762 C66.2653610167643 604.6249867647762 67.01927102185692 602.6640869349117 68.5309609828135 601.2343865603084 C70.0387609658381 599.7968865603084 72.11296099997963 599.07818662821 74.74976105071511 599.07818662821 C77.1559609828135 599.07818662821 79.08176082946267 599.8086566299075 80.5309609828135 601.26568662821 C81.9762609658381 602.7148866623515 82.7028610167643 604.6484867304439 82.7028610167643 607.0625864237422 Z M77.67176145888772 605.4375965565318 C77.67176145888772 604.5118165582294 77.39832145549263 603.765696522581 76.85926145888772 603.203196522581 C76.31629145719018 602.6328865259761 75.60926145888772 602.3438165157909 74.73426145888772 602.3438165157909 C73.78504145719018 602.3438165157909 73.0154615101954 602.6094365090007 72.42176145888772 603.140696522581 C71.82806140758004 603.6719565361614 71.45692146398034 604.4375965565318 71.31236142493691 605.4375965565318 Z " id="s-Path_9-d1224"/>
      <path d="M96.81624168731184 601.687696692335 L96.81624168731184 593.4845964878672 L101.73814148284407 593.4845964878672 L101.73814148284407 614.7655966251963 L96.81624168731184 614.7655966251963 L96.81624168731184 612.5467965572947 C96.1482716856143 613.4530465572947 95.41004163600417 614.1170965403193 94.59744161941023 614.5311965912455 C93.7848416028163 614.9452966421717 92.83964163638564 615.1561965912455 91.76934165336104 615.1561965912455 C89.8826416192195 615.1561965912455 88.33574170447798 614.4061965912455 87.12874144889327 612.9061965912455 C85.91784149981947 611.4061965912455 85.31624144889327 609.4803965061777 85.31624144889327 607.1249966591471 C85.31624144889327 604.7616965740793 85.91780144549818 602.8280968636149 87.12874144889327 601.3280968636149 C88.3357414660594 599.8280968636149 89.88264150001021 599.0780968636149 91.76934165336104 599.0780968636149 C92.83184165336104 599.0780968636149 93.76934165336104 599.2929368585222 94.58184165336104 599.7187168568247 C95.40215164996596 600.1484068602198 96.14824170447798 600.8046168058985 96.81624168731184 601.687516805517 Z M93.59744161941023 611.6095964878672 C94.63654167033644 611.6095964878672 95.43334156848402 611.2306864827746 95.98804158545943 610.468996521818 C96.53882158376189 609.6994665235155 96.81616157866927 608.5861965387934 96.81616157866927 607.1251964539164 C96.81616157866927 605.6681964367502 96.53882158376189 604.5587964027994 95.98804158545943 603.7970964878672 C95.43335158206435 603.0275664895647 94.63644153453322 602.6408964365595 93.59744161941023 602.6408964365595 C92.55444163657637 602.6408964365595 91.7576416192195 603.027616438257 91.20684165336104 603.7970964878672 C90.65215164996596 604.5588164895647 90.3787216601512 605.6681964367502 90.3787216601512 607.1251964539164 C90.3787216601512 608.5860964029902 90.65216166354628 609.6993963688486 91.20684165336104 610.468996521818 C91.7576216516635 611.2307165235155 92.5545416531703 611.6095964878672 93.59744161941023 611.6095964878672 Z " id="s-Path_10-d1224"/>
      <path d="M124.3432106433055 611.6094968289011 C125.39401060916396 611.6094968289011 126.1948106942317 611.2305868238085 126.74941057540389 610.4688968628519 C127.30019057370635 609.6993668645495 127.57753056861372 608.5860968798273 127.57753056861372 607.1250967949503 C127.57753056861372 605.6680967777842 127.30019057370635 604.5586967438334 126.74941057540389 603.7969968289011 C126.1947205720088 603.0274668305987 125.39391059257002 602.6407967775934 124.3432106433055 602.6407967775934 C123.2885106263301 602.6407967775934 122.48381060935469 603.027516779291 121.92131060935469 603.7969968289011 C121.36662060595961 604.5704368322962 121.09319061614485 605.6797968119257 121.09319061614485 607.1250967949503 C121.09319061614485 608.5742968290918 121.36663061953993 609.6836967438334 121.92131060935469 610.4531967609995 C122.48381060935469 611.2266367643946 123.2885106263301 611.6093968123072 124.3432106433055 611.6093968123072 Z M121.0932106433055 601.6875970333689 C121.76899064160796 600.804787036764 122.5151106772563 600.1484969824427 123.3276106772563 599.7187970846766 C124.14792067386122 599.2930170863741 125.0932106433055 599.0781770914667 126.1557106433055 599.0781770914667 C128.05021066047163 599.0781770914667 129.60101074553938 599.8281770914667 130.81191057540389 601.3281770914667 C132.01891059257002 602.8281770914667 132.62441057540389 604.7617770403498 132.62441057540389 607.125076886999 C132.62441057540389 609.4805768698328 132.01894057370635 611.4062768190973 130.81191057540389 612.9062768190973 C129.6010106263301 614.4062768190973 128.05021066047163 615.1562768190973 126.1557106433055 615.1562768190973 C125.0932106433055 615.1562768190973 124.14791054107161 614.9453368157023 123.3276106772563 614.5312768190973 C122.5151106772563 614.1054968207949 121.76901072837325 613.4453768700236 121.0932106433055 612.5468767851465 L121.0932106433055 614.7656768530481 L116.20261043883772 614.7656768530481 L116.20261043883772 593.484676715719 L121.0932106433055 593.484676715719 Z " id="s-Path_11-d1224"/>
      <path d="M134.2299293933055 599.4536964863414 L139.12052959777327 599.4536964863414 L143.24552959777327 609.8446962803478 L146.74552959777327 599.4536964863414 L151.63612980224104 599.4536964863414 L145.19862980224104 616.2196972340221 C144.55018979884596 617.9149972170467 143.7963298020503 619.102497336256 142.93302983619185 619.7821972340221 C142.06583983279677 620.4696972340221 140.93302983619185 620.8133972853298 139.52682990409346 620.8133972853298 L136.68302983619185 620.8133972853298 L136.68302983619185 617.5945972174281 L138.21422988749953 617.5945972174281 C139.046259885802 617.5945972174281 139.65172988749953 617.4578772157306 140.02672988749953 617.1883472174281 C140.40953988410445 616.9266272157306 140.7064198908946 616.4578772157306 140.91734988070937 615.7821471661205 L141.0579698739192 615.3602671593303 Z " id="s-Path_12-d1224"/>
      <path d="M164.4642793593547 594.3596966236704 L169.7142793593547 594.3596966236704 L169.7142793593547 610.7816975086802 L178.9642793593547 610.7816975086802 L178.9642793593547 614.766097542631 L164.4642793593547 614.766097542631 Z " id="s-Path_13-d1224"/>
      <path d="M188.94482273437 607.8750965565318 C187.92142278529622 607.8750965565318 187.15182275153614 608.046976563322 186.63232273437 608.3907165497417 C186.12060273267247 608.7344665497417 185.86670274116017 609.2461865514392 185.86670274116017 609.9219166010494 C185.86670274116017 610.5469166010494 186.07373273946263 611.0391166180248 186.49170274116017 611.3907165497417 C186.9057627377651 611.7344665497417 187.47998273946263 611.9063365429515 188.2105026898525 611.9063365429515 C189.13628268815495 611.9063365429515 189.91360265590168 611.5782165497417 190.53860265590168 610.9219565361614 C191.1714126525066 610.2578965395564 191.49172264911152 609.429756519186 191.49172264911152 608.4375565022106 L191.49172264911152 607.8750565022106 Z M196.41362280227162 606.0312966078395 L196.41362280227162 614.7656964033717 L191.4917230067394 614.7656964033717 L191.4917230067394 612.5000964373226 C190.8354730067394 613.4297864407176 190.0933230576656 614.1055964201564 189.27292293883778 614.5312963694209 C188.44870293714024 614.9453563660259 187.44872290469624 615.1562963694209 186.27292293883778 615.1562963694209 C184.687022989764 615.1562963694209 183.40182298995472 614.6992663711185 182.41352290488697 613.7812963694209 C181.4213329014919 612.8555163711185 180.92912287093617 611.652396318304 180.92912287093617 610.1718963354701 C180.92912287093617 608.3827962845439 181.54240286923863 607.0702964037532 182.7729228196285 606.2343963354701 C184.01122278548695 605.3906463354701 185.9526227173946 604.9687963694209 188.60102302409626 604.9687963694209 L191.49162299014546 604.9687963694209 L191.49162299014546 604.5781763762111 C191.49162299014546 603.8086463779086 191.18303299523808 603.246176359045 190.5697429833553 602.8906763762111 C189.95255297996022 602.5273963779086 188.9994430003307 602.3437963694209 187.7103429494045 602.3437963694209 C186.6556429324291 602.3437963694209 185.6791430173061 602.4492663711185 184.7728429494045 602.6562963694209 C183.8744029460094 602.867236372816 183.04234296657063 603.179736372816 182.2728429494045 603.5937963694209 L182.2728429494045 599.8593963354701 C183.3119430003307 599.6093963354701 184.35874301768757 599.4179863303775 185.4134429154537 599.2812763422603 C186.4759429154537 599.1484663456554 187.5384429154537 599.0781563490505 188.6009429154537 599.0781563490505 C191.35874301768757 599.0781563490505 193.3509429154537 599.6250363558406 194.5697429833553 600.7187563150997 C195.7963430342815 601.8046562641734 196.41354293204762 603.5742562979335 196.41354293204762 606.0312563150997 Z " id="s-Path_14-d1224"/>
      <path d="M200.97995442725636 593.4846966236705 L205.87055463172413 593.4846966236705 L205.87055463172413 605.0786964863414 L211.49555463172413 599.4536964863414 L217.18305463172413 599.4536964863414 L209.71425456382252 606.4848964184398 L217.77675456382252 614.7660968273753 L211.83925456382252 614.7660968273753 L205.8704544959209 608.3754966229076 L205.8704544959209 614.7660968273753 L200.97985429145314 614.7660968273753 Z " id="s-Path_15-d1224"/>
      <path d="M231.5536484179637 599.9376966923351 L231.5536484179637 603.6564967602367 C230.51064843512984 603.2189967602367 229.4989485201976 602.8908767670268 228.5224484858653 602.6721167534465 C227.54197848416777 602.4533667534465 226.62014848567458 602.3439967602367 225.75684851981612 602.3439967602367 C224.82715851642104 602.3439967602367 224.13574857093306 602.4611867636318 223.67874855376692 602.6877467602367 C223.22952855206938 602.9182167619342 223.00686854697676 603.2775867551441 223.00686854697676 603.7658467262859 C223.00686854697676 604.1525667279834 223.17874855376692 604.4494367211933 223.5224885401866 604.6564667194957 C223.8662385401866 604.8674067228908 224.47951853848906 605.0236567228908 225.36628848887892 605.1252167194957 L226.22566849566908 605.2502167194957 C228.73346859790297 605.5744367211933 230.42096859790297 606.1017767161006 231.28816849566908 606.8283166855449 C232.15144849397154 607.5587866872424 232.5850685296199 608.699416634428 232.5850685296199 610.2502167194957 C232.5850685296199 611.8869167536373 231.97959852792235 613.1174166172618 230.7725685296199 613.9377167194957 C229.57336849547835 614.7502167194957 227.78036863185378 615.156516668188 225.3975685296199 615.156516668188 C224.3741685805461 615.156516668188 223.32336861468764 615.078391668188 222.2413685975215 614.9221366613979 C221.16716856337996 614.7658866613979 220.0616686997554 614.5276066630954 218.9288685975215 614.2033866613979 L218.9288685975215 610.4845865934963 C219.8976185975215 610.9650565951938 220.8897685465953 611.3244265884036 221.9132686314723 611.5626865595455 C222.94446868277998 611.793156561243 223.9913685975215 611.9064365595455 225.0538685975215 611.9064365595455 C226.01089859582396 611.9064365595455 226.72966856337996 611.7775265544528 227.2100685296199 611.5158165663356 C227.6866285262248 611.2462865680332 227.9288185296199 610.8517565697307 227.9288185296199 610.3283165663356 C227.9288185296199 609.8908165663356 227.76084852792235 609.5705065697307 227.4288185296199 609.3595665663356 C227.0928785262248 609.1408165663356 226.4327285347125 608.9767565697307 225.44441849566908 608.8595665663356 L224.58503848887892 608.750186566996 C222.4053385911128 608.4806565686936 220.88193852282973 607.976746563601 220.00693828441115 607.2345866009468 C219.13193828441115 606.4963066026444 218.69443828441115 605.375186566996 218.69443828441115 603.875186566996 C218.69443828441115 602.250186566996 219.2452182827136 601.0470866009468 220.35063833571883 600.2657865330452 C221.4639383015773 599.4767265364403 223.1709384379527 599.0782865330452 225.47563833571883 599.0782865330452 C226.3701683340213 599.0782865330452 227.31153828479262 599.152505536365 228.30373830176802 599.2970365330452 C229.30373830176802 599.4337565347428 230.38573831893416 599.6485965296501 231.55373830176802 599.9376565262551 Z " id="s-Path_16-d1224"/>
      <path d="M251.65961689330544 605.4375965565318 L251.65961689330544 614.7656967609996 L246.7377170977732 614.7656967609996 L246.7377170977732 607.6562969654674 C246.7377170977732 606.3124970167751 246.7064670977732 605.3906969994182 246.6439670977732 604.8906969994182 C246.5814670977732 604.3906969994182 246.47599709607567 604.0235069960231 246.3314670977732 603.7812969654674 C246.1439670977732 603.4687969654674 245.88224709607567 603.2266069620723 245.5502170977732 603.0469169586772 C245.22599709607567 602.8711369603748 244.8549071011683 602.7812969654674 244.4408170638224 602.7812969654674 C243.41741711474862 602.7812969654674 242.61661702968087 603.1797369688625 242.03461713172402 603.9687969654674 C241.44867712832894 604.7500469654674 241.15961713172402 605.8398969143504 241.15961713172402 607.2343969315166 L241.15961713172402 614.765596863615 L236.26901692725625 614.765596863615 L236.26901692725625 593.4845967262859 L241.15961713172402 593.4845967262859 L241.15961713172402 601.6876969307536 C241.89789713002648 600.8048869341487 242.67911714889016 600.1485968798274 243.50341719962563 599.7188969820613 C244.3354471979281 599.2931169837589 245.25341719962563 599.0782769888515 246.25341719962563 599.0782769888515 C248.02291721679177 599.0782769888515 249.36671728469338 599.6251569956416 250.28461713172402 600.7188769549007 C251.19867712832894 601.8047769039745 251.65961713172402 603.3750768869991 251.65961713172402 605.4376770228023 Z " id="s-Path_17-d1224"/>
      <path d="M256.1987044272563 599.4536964863414 L261.0893046317241 599.4536964863414 L261.0893046317241 614.7656967609996 L256.1987044272563 614.7656967609996 Z M256.1987044272563 593.4848964184398 L261.0893046317241 593.4848964184398 L261.0893046317241 597.4848964184398 L256.1987044272563 597.4848964184398 Z " id="s-Path_18-d1224"/>
      <path d="M277.75286716796364 599.9376966923351 L277.75286716796364 603.6564967602367 C276.7098671851298 603.2189967602367 275.69816727019753 602.8908767670268 274.72166723586525 602.6721167534465 C273.7411972341677 602.4533667534465 272.8193672356745 602.3439967602367 271.95606726981606 602.3439967602367 C271.026377266421 602.3439967602367 270.334967320933 602.4611867636318 269.87796730376687 602.6877467602367 C269.4287473020693 602.9182167619342 269.2060872969767 603.2775867551441 269.2060872969767 603.7658467262859 C269.2060872969767 604.1525667279834 269.37796730376687 604.4494367211933 269.72170729018654 604.6564667194957 C270.06545729018654 604.8674067228908 270.678737288489 605.0236567228908 271.56550723887887 605.1252167194957 L272.424887245669 605.2502167194957 C274.9326873479029 605.5744367211933 276.6201873479029 606.1017767161006 277.487387245669 606.8283166855449 C278.3506672439715 607.5587866872424 278.78428727961983 608.699416634428 278.78428727961983 610.2502167194957 C278.78428727961983 611.8869167536373 278.1788172779223 613.1174166172618 276.97178727961983 613.9377167194957 C275.7725872454783 614.7502167194957 273.9795873818537 615.156516668188 271.59678727961983 615.156516668188 C270.57338733054604 615.156516668188 269.5225873646876 615.078391668188 268.44058734752144 614.9221366613979 C267.3663873133799 614.7658866613979 266.26088744975533 614.5276066630954 265.12808734752144 614.2033866613979 L265.12808734752144 610.4845865934963 C266.09683734752144 610.9650565951938 267.08898729659523 611.3244265884036 268.11248738147225 611.5626865595455 C269.1436874327799 611.793156561243 270.19058734752144 611.9064365595455 271.25308734752144 611.9064365595455 C272.2101173458239 611.9064365595455 272.9288873133799 611.7775265544528 273.40928727961983 611.5158165663356 C273.88584727622475 611.2462865680332 274.12803727961983 610.8517565697307 274.12803727961983 610.3283165663356 C274.12803727961983 609.8908165663356 273.9600672779223 609.5705065697307 273.62803727961983 609.3595665663356 C273.29209727622475 609.1408165663356 272.63194728471245 608.9767565697307 271.643637245669 608.8595665663356 L270.78425723887887 608.750186566996 C268.60455734111275 608.4806565686936 267.08115727282967 607.976746563601 266.2061570344111 607.2345866009468 C265.3311570344111 606.4963066026444 264.8936570344111 605.375186566996 264.8936570344111 603.875186566996 C264.8936570344111 602.250186566996 265.44443703271355 601.0470866009468 266.54985708571877 600.2657865330452 C267.66315705157723 599.4767265364403 269.37015718795266 599.0782865330452 271.67485708571877 599.0782865330452 C272.56938708402123 599.0782865330452 273.51075703479256 599.152505536365 274.50295705176796 599.2970365330452 C275.50295705176796 599.4337565347428 276.5849570689341 599.6485965296501 277.75295705176796 599.9376565262551 Z " id="s-Path_19-d1224"/>
      <path d="M297.8549293933054 605.4375965565318 L297.8549293933054 614.7656967609996 L292.93302959777316 614.7656967609996 L292.93302959777316 607.6562969654674 C292.93302959777316 606.3124970167751 292.90177959777316 605.3906969994182 292.83927959777316 604.8906969994182 C292.77677959777316 604.3906969994182 292.6713095960756 604.0235069960231 292.52677959777316 603.7812969654674 C292.33927959777316 603.4687969654674 292.0775595960756 603.2266069620723 291.74552959777316 603.0469169586772 C291.4213095960756 602.8711369603748 291.05021960116824 602.7812969654674 290.63612956382235 602.7812969654674 C289.61272961474856 602.7812969654674 288.8119295296808 603.1797369688625 288.22992963172396 603.9687969654674 C287.6439896283289 604.7500469654674 287.35492963172396 605.8398969143504 287.35492963172396 607.2343969315166 L287.35492963172396 614.765596863615 L282.4643294272562 614.765596863615 L282.4643294272562 593.4845967262859 L287.35492963172396 593.4845967262859 L287.35492963172396 601.6876969307536 C288.0932096300264 600.8048869341487 288.8744296488901 600.1485968798274 289.6987296996256 599.7188969820613 C290.53075969792803 599.2931169837589 291.4487296996256 599.0782769888515 292.4487296996256 599.0782769888515 C294.2182297167917 599.0782769888515 295.5620297846933 599.6251569956416 296.47992963172396 600.7188769549007 C297.3939896283289 601.8047769039745 297.85492963172396 603.3750768869991 297.85492963172396 605.4376770228023 Z " id="s-Path_20-d1224"/>
      <path d="M309.2573227343701 607.8750965565318 C308.23392278529633 607.8750965565318 307.46432275153626 608.046976563322 306.9448227343701 608.3907165497417 C306.4331027326726 608.7344665497417 306.1792027411603 609.2461865514392 306.1792027411603 609.9219166010494 C306.1792027411603 610.5469166010494 306.38623273946274 611.0391166180248 306.8042027411603 611.3907165497417 C307.2182627377652 611.7344665497417 307.79248273946274 611.9063365429515 308.5230026898526 611.9063365429515 C309.44878268815506 611.9063365429515 310.2261026559018 611.5782165497417 310.8511026559018 610.9219565361614 C311.4839126525067 610.2578965395564 311.80422264911164 609.429756519186 311.80422264911164 608.4375565022106 L311.80422264911164 607.8750565022106 Z M316.72612280227173 606.0312966078395 L316.72612280227173 614.7656964033717 L311.8042230067395 614.7656964033717 L311.8042230067395 612.5000964373226 C311.1479730067395 613.4297864407176 310.4058230576657 614.1055964201564 309.5854229388379 614.5312963694209 C308.76120293714035 614.9453563660259 307.76122290469635 615.1562963694209 306.5854229388379 615.1562963694209 C304.9995229897641 615.1562963694209 303.71432298995484 614.6992663711185 302.7260229048871 613.7812963694209 C301.733832901492 612.8555163711185 301.2416228709363 611.652396318304 301.2416228709363 610.1718963354701 C301.2416228709363 608.3827962845439 301.85490286923874 607.0702964037532 303.0854228196286 606.2343963354701 C304.32372278548706 605.3906463354701 306.2651227173947 604.9687963694209 308.9135230240964 604.9687963694209 L311.8041229901456 604.9687963694209 L311.8041229901456 604.5781763762111 C311.8041229901456 603.8086463779086 311.4955329952382 603.246176359045 310.8822429833554 602.8906763762111 C310.26505297996033 602.5273963779086 309.3119430003308 602.3437963694209 308.0228429494046 602.3437963694209 C306.9681429324292 602.3437963694209 305.9916430173062 602.4492663711185 305.0853429494046 602.6562963694209 C304.1869029460095 602.867236372816 303.35484296657074 603.179736372816 302.5853429494046 603.5937963694209 L302.5853429494046 599.8593963354701 C303.6244430003308 599.6093963354701 304.6712430176877 599.4179863303775 305.7259429154538 599.2812763422603 C306.7884429154538 599.1484663456554 307.8509429154538 599.0781563490505 308.9134429154538 599.0781563490505 C311.6712430176877 599.0781563490505 313.6634429154538 599.6250363558406 314.8822429833554 600.7187563150997 C316.1088430342816 601.8046562641734 316.72604293204773 603.5742562979335 316.72604293204773 606.0312563150997 Z " id="s-Path_21-d1224"/>
      <path d="M-8.144945675359054 621.4846966236705 L-8.144945675359054 624.7034966915721 L-10.848045641408248 624.7034966915721 C-11.535545641408248 624.7034966915721 -12.019945675359054 624.8284966915721 -12.301145607457443 625.0784966915721 C-12.574585610852523 625.3284966915721 -12.707395607457443 625.7659966915721 -12.707395607457443 626.3909966915721 L-12.707395607457443 627.4534966915721 L-8.519895607457443 627.4534966915721 L-8.519895607457443 630.9534966915721 L-12.707395607457443 630.9534966915721 L-12.707395607457443 642.7654969662303 L-17.597995811925216 642.7654969662303 L-17.597995811925216 630.9534966915721 L-20.035495811925216 630.9534966915721 L-20.035495811925216 627.4534966915721 L-17.597995811925216 627.4534966915721 L-17.597995811925216 626.3909966915721 C-17.597995811925216 624.7268966406459 -17.137055808530135 623.492596623289 -16.20739584587602 622.6878967255229 C-15.281615847573562 621.8871167272205 -13.840195948109908 621.4847967594737 -11.879295641408248 621.4847967594737 Z " id="s-Path_22-d1224"/>
      <path d="M5.350648349299149 631.6246969669932 C4.913148349299149 631.4293869703882 4.47955835439177 631.2809469669932 4.053748315348344 631.1871969669932 C3.6357783136508033 631.0856369703882 3.2139083204409644 631.0309469669932 2.7881483492991492 631.0309469669932 C1.5264483151576087 631.0309469669932 0.5576483664652869 631.4371969669932 -0.11805158279923944 632.2497469156855 C-0.79774158619432 633.0544369190806 -1.1336515488484338 634.2028468817347 -1.1336515488484338 635.7028468817347 L-1.1336515488484338 642.7653468817347 L-6.024251753316207 642.7653468817347 L-6.024251753316207 627.4533466070765 L-1.1336515488484338 627.4533466070765 L-1.1336515488484338 629.9689465731257 C-0.5086515488484338 628.9689465731257 0.210148399843888 628.2423465221995 1.022548383249955 627.7814465731257 C1.8428583798548743 627.3126965731257 2.8233483491084144 627.0783265799158 3.960048383249955 627.0783265799158 C4.124108379854874 627.0783265799158 4.303798383249955 627.0900455795103 4.491298383249955 627.1095765799158 C4.686608379854874 627.1212955795103 4.967858379854874 627.1486385807269 5.335048383249955 627.1877015799158 Z " id="s-Path_23-d1224"/>
      <path d="M15.06584209777327 630.5776970356577 C13.979942148699479 630.5776970356577 13.151742046847062 630.9683170288675 12.581442063822465 631.7495970696085 C12.007222062124924 632.5308470696085 11.722062057032304 633.6557971209162 11.722062057032304 635.1245970696085 C11.722062057032304 636.5933970183008 12.007222062124924 637.7183971375101 12.581442063822465 638.4995970696085 C13.151752060427384 639.2730370730036 13.979842012896256 639.6557971209162 15.06584209777327 639.6557971209162 C16.12834209777327 639.6557971209162 16.94084209777327 639.2729871243113 17.50334209777327 638.4995970696085 C18.07365209437819 637.7183470696085 18.36272210456343 636.5933970183008 18.36272210456343 635.1245970696085 C18.36272210456343 633.6557971209162 18.073662107958512 632.5307970017069 17.50334209777327 631.7495970696085 C16.94084209777327 630.9683470696085 16.12834209777327 630.5776970356577 15.06584209777327 630.5776970356577 Z M15.06584209777327 627.0776970356577 C17.698642200007157 627.0776970356577 19.757242148890214 627.7925370305651 21.237741893305497 629.2182970017069 C22.714341944231705 630.6362969845408 23.456541961207108 632.6049969166392 23.456541961207108 635.1244969338053 C23.456541961207108 637.6361968487375 22.714351957812028 639.6049971550577 21.237741893305497 641.0306968659037 C19.757241910471635 642.4486968487375 17.698641961588578 643.1556968659037 15.06584209777327 643.1556968659037 C12.41744202949019 643.1556968659037 10.351042216791825 642.4486668676012 8.862741893305497 641.0306968659037 C7.370541876330094 639.6048969000452 6.628341859354691 637.6361968487375 6.628341859354691 635.1244969338053 C6.628341859354691 632.6049969166392 7.370531862749772 630.6361970871561 8.862741893305497 629.2182970017069 C10.351041859163956 627.7924970358484 12.41744179107161 627.0776970356577 15.06584209777327 627.0776970356577 Z " id="s-Path_24-d1224"/>
      <path d="M41.20661777831526 629.9996969669933 C41.81989777661772 629.0543869703884 42.55431777812453 628.3277969330425 43.40971774436446 627.8277969330425 C44.261277740969376 627.3277969330425 45.198817795290665 627.0777969330425 46.22221774436446 627.0777969330425 C47.980017727389054 627.0777969330425 49.31991786338301 627.6246769398326 50.23781794883223 628.7183968990917 C51.16359794713469 629.8042968481654 51.628417914881425 631.37459683119 51.628417914881425 633.4371969669933 L51.628417914881425 642.765297171461 L46.7065181193492 642.765297171461 L46.7065181193492 634.7808973759288 L46.7065181193492 634.4215173691387 C46.71433111946942 634.2887073725337 46.7221431193492 634.1012073725337 46.7221431193492 633.8590173691387 C46.7221431193492 632.7770173519725 46.55808312274428 631.9957174032802 46.23776311255904 631.515217301237 C45.92526311255904 631.0269373029346 45.4135431108615 630.7808372944469 44.70656306125136 630.7808372944469 C43.77687305785628 630.7808372944469 43.05816311217757 631.1675572961444 42.55036312915297 631.9370373457546 C42.03864312745543 632.6987573474521 41.77692312575789 633.80423736273 41.76911312915297 635.2495373457546 L41.76911312915297 642.7651375502223 L36.84721333362074 642.7651375502223 L36.84721333362074 634.7807377546901 C36.84721333362074 633.0854377716655 36.69877333022566 631.9955376356716 36.40971333362074 631.5151377886409 C36.1167433319232 631.0268577903385 35.59721333362074 630.7807577818508 34.84721333362074 630.7807577818508 C33.90971333362074 630.7807577818508 33.183113282694535 631.1674777835483 32.67531329966994 631.9369578331584 C32.1635932979724 632.698677834856 31.9096933064601 633.7963578671092 31.9096933064601 635.2338578671092 L31.9096933064601 642.7650577992076 L26.987793510927872 642.7650577992076 L26.987793510927872 627.4530575245494 L31.9096933064601 627.4530575245494 L31.9096933064601 629.6874575585002 C32.51125330306502 628.8241775601978 33.19879335738631 628.171857592451 33.9721933064601 627.734357592451 C34.7534433064601 627.296857592451 35.61279327250929 627.078107592451 36.55029327250929 627.078107592451 C37.61279327250929 627.078107592451 38.55029327250929 627.335917589056 39.36279327250929 627.8437275856609 C40.17529327250929 628.3554475873584 40.78859323836775 629.0742275684947 41.206593221201615 629.9999275177593 Z " id="s-Path_25-d1224"/>
      <path d="M71.28849834777327 623.1096966236705 L71.28849834777327 627.4534966915721 L76.3353981433055 627.4534966915721 L76.3353981433055 630.9534966915721 L71.28849834777327 630.9534966915721 L71.28849834777327 637.4534966915721 C71.28849834777327 638.1644366949672 71.42911834098311 638.6409966915721 71.71037835456343 638.8909966915721 C71.99163836814375 639.1409966915721 72.54631835795851 639.2659966915721 73.38227838851424 639.2659966915721 L75.89787835456343 639.2659966915721 L75.89787835456343 642.7659966915721 L71.71037835456343 642.7659966915721 C69.77287835456343 642.7659966915721 68.39787835456343 642.367556688177 67.58537835456343 641.5628967255229 C66.78068835116835 640.7503967255229 66.38227838851424 639.3831968277568 66.38227838851424 637.4534969299907 L66.38227838851424 630.9534969299907 L63.96037835456343 630.9534969299907 L63.96037835456343 627.4534969299907 L66.38227838851424 627.4534969299907 L66.38227838851424 623.1096968620891 Z " id="s-Path_26-d1224"/>
      <path d="M94.7182106433055 633.4375965565318 L94.7182106433055 642.7656967609996 L89.79631084777327 642.7656967609996 L89.79631084777327 635.6562969654674 C89.79631084777327 634.3124970167751 89.76506084777327 633.3906969994182 89.70256084777327 632.8906969994182 C89.64006084777327 632.3906969994182 89.53459084607573 632.0235069960231 89.39006084777327 631.7812969654674 C89.20256084777327 631.4687969654674 88.94084084607573 631.2266069620723 88.60881084777327 631.0469169586772 C88.28459084607573 630.8711369603748 87.91350085116835 630.7812969654674 87.49941081382246 630.7812969654674 C86.47601086474867 630.7812969654674 85.67521077968092 631.1797369688625 85.09321088172408 631.9687969654674 C84.507270878329 632.7500469654674 84.21821088172408 633.8398969143504 84.21821088172408 635.2343969315166 L84.21821088172408 642.765596863615 L79.3276106772563 642.765596863615 L79.3276106772563 621.4845967262859 L84.21821088172408 621.4845967262859 L84.21821088172408 629.6876969307536 C84.95649088002654 628.8048869341487 85.73771089889021 628.1485968798274 86.56201094962569 627.7188969820613 C87.39404094792815 627.2931169837589 88.31201094962569 627.0782769888515 89.31201094962569 627.0782769888515 C91.08151096679183 627.0782769888515 92.42531103469344 627.6251569956416 93.34321088172408 628.7188769549007 C94.257270878329 629.8047769039745 94.71821088172408 631.3750768869991 94.71821088172408 633.4376770228023 Z " id="s-Path_27-d1224"/>
      <path d="M114.54280514098616 635.0625965565318 L114.54280514098616 636.4687966078395 L103.08980507232161 636.4687966078395 C103.21480507232161 637.6171965569133 103.62886506892653 638.4765967100734 104.33980507232161 639.0468965738887 C105.04683507062407 639.6211165755863 106.0429050383708 639.9062765806789 107.32420510627242 639.9062765806789 C108.3554051575801 639.9062765806789 109.40620512343855 639.7578365772838 110.4804050383708 639.453156587469 C111.56240505553694 639.140656587469 112.67180508948775 638.679716584074 113.80850500442 638.0625566214198 L113.80850500442 641.828156587469 C112.65230495311232 642.265656587469 111.49600500442 642.5937765806789 110.33970493651839 642.8125365942592 C109.18350488521071 643.0390965908641 108.02720493651839 643.1562865942592 106.87090486861678 643.1562865942592 C104.0975048003337 643.1562865942592 101.94120497085066 642.4531666010494 100.40210480071516 641.0468865603084 C98.87090474940749 639.6406865090007 98.10520476676436 637.6679865091915 98.10520476676436 635.1249867647762 C98.10520476676436 632.6249867647762 98.85911477185698 630.6640869349117 100.37080473281355 629.2343865603084 C101.87860471583815 627.7968865603084 103.95280474997969 627.07818662821 106.58960480071516 627.07818662821 C108.99580473281355 627.07818662821 110.92160457946272 627.8086566299075 112.37080473281355 629.26568662821 C113.81610471583815 630.7148866623515 114.54270476676436 632.6484867304439 114.54270476676436 635.0625864237422 Z M109.51160520888777 633.4375965565318 C109.51160520888777 632.5118165582294 109.23816520549269 631.765696522581 108.69910520888777 631.203196522581 C108.15613520719023 630.6328865259761 107.44910520888777 630.3438165157909 106.57410520888777 630.3438165157909 C105.62488520719023 630.3438165157909 104.85530526019545 630.6094365090007 104.26160520888777 631.140696522581 C103.6679051575801 631.6719565361614 103.2967652139804 632.4375965565318 103.15220517493697 633.4375965565318 Z " id="s-Path_28-d1224"/>
      <path d="M128.2181856093547 622.3596966236705 L134.0931856093547 622.3596966236705 L141.51508540488692 636.3596966236705 L141.51508540488692 622.3596966236705 L146.49948520041914 622.3596966236705 L146.49948520041914 642.7656967609996 L140.62448520041914 642.7656967609996 L133.20258540488692 628.7656967609996 L133.20258540488692 642.7656967609996 L128.2181856093547 642.7656967609996 Z " id="s-Path_29-d1224"/>
      <path d="M158.71427959777327 630.5776970356577 C157.62837964869948 630.5776970356577 156.80017954684706 630.9683170288675 156.22987956382246 631.7495970696085 C155.65565956212492 632.5308470696085 155.3704995570323 633.6557971209162 155.3704995570323 635.1245970696085 C155.3704995570323 636.5933970183008 155.65565956212492 637.7183971375101 156.22987956382246 638.4995970696085 C156.80018956042738 639.2730370730036 157.62827951289626 639.6557971209162 158.71427959777327 639.6557971209162 C159.77677959777327 639.6557971209162 160.58927959777327 639.2729871243113 161.15177959777327 638.4995970696085 C161.7220895943782 637.7183470696085 162.01115960456343 636.5933970183008 162.01115960456343 635.1245970696085 C162.01115960456343 633.6557971209162 161.7220996079585 632.5307970017069 161.15177959777327 631.7495970696085 C160.58927959777327 630.9683470696085 159.77677959777327 630.5776970356577 158.71427959777327 630.5776970356577 Z M158.71427959777327 627.0776970356577 C161.34707970000716 627.0776970356577 163.4056796488902 627.7925370305651 164.8861793933055 629.2182970017069 C166.3627794442317 630.6362969845408 167.1049794612071 632.6049969166392 167.1049794612071 635.1244969338053 C167.1049794612071 637.6361968487375 166.36278945781203 639.6049971550577 164.8861793933055 641.0306968659037 C163.40567941047163 642.4486968487375 161.34707946158858 643.1556968659037 158.71427959777327 643.1556968659037 C156.0658795294902 643.1556968659037 153.99947971679183 642.4486668676012 152.5111793933055 641.0306968659037 C151.0189793763301 639.6048969000452 150.2767793593547 637.6361968487375 150.2767793593547 635.1244969338053 C150.2767793593547 632.6049969166392 151.01896936274977 630.6361970871561 152.5111793933055 629.2182970017069 C153.99947935916396 627.7924970358484 156.0658792910716 627.0776970356577 158.71427959777327 627.0776970356577 Z " id="s-Path_30-d1224"/>
      <path d="M170.4994606433055 636.796896693098 L170.4994606433055 627.4530971020336 L175.42136043883772 627.4530971020336 L175.42136043883772 628.9842971533412 C175.42136043883772 629.8202371567363 175.4135474387175 630.8592971533412 175.40573543883772 632.1092971533412 C175.39401643924327 633.3592971533412 175.39011043883772 634.1951972216243 175.39011043883772 634.6092971533412 C175.39011043883772 635.8514971703166 175.42136043883772 636.7420972555751 175.48386043883772 637.281197187292 C175.55417343802662 637.8241671889896 175.6635504422328 638.2147871821994 175.81198043204756 638.4530972212428 C176.01901043035002 638.7773172229404 176.28464043714018 639.0273172229404 176.60886043883772 639.2030972212428 C176.92917043544264 639.3710672229404 177.30027044393034 639.4530972212428 177.71826047278853 639.4530972212428 C178.73776048995467 639.4530972212428 179.53856045581313 639.062477228033 180.12446040488692 638.281197187292 C180.70649040318938 637.499947187292 180.99946040488692 636.4139971703166 180.99946040488692 635.0155972212428 L180.99946040488692 627.4530972212428 L185.8900606093547 627.4530972212428 L185.8900606093547 642.765097495901 L180.99946040488692 642.765097495901 L180.99946040488692 640.5462974279994 C180.25727040149184 641.4447374313945 179.47606045581313 642.1048973768825 178.6556603369853 642.5306974619502 C177.83144033528777 642.9447574585552 176.9212603030345 643.1556974619502 175.9212603030345 643.1556974619502 C174.15956026889296 643.1556974619502 172.81576032020064 642.6166374653453 171.8900603709361 641.5306974619502 C170.96037036754103 640.4486974447841 170.49946040488692 638.8704973429317 170.49946040488692 636.796297666418 Z " id="s-Path_31-d1224"/>
      <path d="M205.99555439330544 633.4375965565318 L205.99555439330544 642.7656967609996 L201.0736545977732 642.7656967609996 L201.0736545977732 635.6250965565318 C201.0736545977732 634.3047965735072 201.0424045977732 633.390696522581 200.9799045977732 632.890696522581 C200.9174045977732 632.390696522581 200.81193459607567 632.023506519186 200.6674045977732 631.7812964886302 C200.4799045977732 631.4687964886302 200.21818459607567 631.2266064852352 199.8861545977732 631.0469164818401 C199.56193459607567 630.8711364835376 199.1908446011683 630.7812964886302 198.7767545638224 630.7812964886302 C197.75335461474862 630.7812964886302 196.95255452968087 631.1797364920253 196.37055463172402 631.9687964886302 C195.78461462832894 632.7500464886302 195.49555463172402 633.8398964375133 195.49555463172402 635.2343964546794 L195.49555463172402 642.7655963867778 L190.60495442725625 642.7655963867778 L190.60495442725625 627.4535961121196 L195.49555463172402 627.4535961121196 L195.49555463172402 629.6879961460704 C196.23383463002648 628.8051861494655 197.01505464889016 628.1488960951442 197.83935469962563 627.7191961973781 C198.6713846979281 627.2934161990756 199.58935469962563 627.0785762041683 200.58935469962563 627.0785762041683 C202.35885471679177 627.0785762041683 203.70265478469338 627.6254562109584 204.62055463172402 628.7191761702175 C205.53461462832894 629.8050761192912 205.99555463172402 631.3753761023158 205.99555463172402 633.4379762381191 Z " id="s-Path_32-d1224"/>
      <path d="M220.50334185935463 622.3596966236705 L229.23774165488686 622.3596966236705 C231.83154172278847 622.3596966236705 233.81974143363442 622.9378166168804 235.20654172278847 624.0940966576213 C236.6010417399546 625.2424966066951 237.30034179069008 626.8831965893382 237.30034179069008 629.0159964531535 C237.30034179069008 631.1526963680858 236.60112178899254 632.7971963852519 235.20654172278847 633.9534964531535 C233.81984168864693 635.1096965044612 231.83154172278847 635.6878964871044 229.23774165488686 635.6878964871044 L225.75334162093606 635.6878964871044 L225.75334162093606 642.7659966915721 L220.50334162093606 642.7659966915721 Z M225.75334185935463 626.1721966236705 L225.75334185935463 631.8752968281383 L228.67524189330544 631.8752968281383 C229.69474191047158 631.8752968281383 230.47994191028084 631.6252968281383 231.03464192725625 631.1252968281383 C231.59714192725625 630.6252968281383 231.87839192725625 629.9221968620891 231.87839192725625 629.0158967941875 C231.87839192725625 628.1018367975826 231.59714192725625 627.3986967772121 231.03464192725625 626.9064967602367 C230.47995192386117 626.4182167619342 229.6948419270655 626.1721167534465 228.67524189330544 626.1721167534465 Z " id="s-Path_33-d1224"/>
      <path d="M252.18267959929926 631.6246969669932 C251.74517959929926 631.4293869703882 251.31158960439188 631.2809469669932 250.88577956534846 631.1871969669932 C250.46780956365092 631.0856369703882 250.04593957044108 631.0309469669932 249.62017959929926 631.0309469669932 C248.35847956515772 631.0309469669932 247.3896796164654 631.4371969669932 246.71397966720087 632.2497469156855 C246.0342896638058 633.0544369190806 245.69837970115168 634.2028468817347 245.69837970115168 635.7028468817347 L245.69837970115168 642.7653468817347 L240.8077794966839 642.7653468817347 L240.8077794966839 627.4533466070765 L245.69837970115168 627.4533466070765 L245.69837970115168 629.9689465731257 C246.32337970115168 628.9689465731257 247.042179649844 628.2423465221995 247.85457963325007 627.7814465731257 C248.674889629855 627.3126965731257 249.65537959910853 627.0783265799158 250.79207963325007 627.0783265799158 C250.956139629855 627.0783265799158 251.13582963325007 627.0900455795103 251.32332963325007 627.1095765799158 C251.518639629855 627.1212955795103 251.799889629855 627.1486385807269 252.16707963325007 627.1877015799158 Z " id="s-Path_34-d1224"/>
      <path d="M261.89396709777327 630.5776970356577 C260.8080671486995 630.5776970356577 259.97986704684706 630.9683170288675 259.40956706382246 631.7495970696085 C258.8353470621249 632.5308470696085 258.5501870570323 633.6557971209162 258.5501870570323 635.1245970696085 C258.5501870570323 636.5933970183008 258.8353470621249 637.7183971375101 259.40956706382246 638.4995970696085 C259.9798770604274 639.2730370730036 260.80796701289626 639.6557971209162 261.89396709777327 639.6557971209162 C262.95646709777327 639.6557971209162 263.76896709777327 639.2729871243113 264.33146709777327 638.4995970696085 C264.9017770943782 637.7183470696085 265.19084710456343 636.5933970183008 265.19084710456343 635.1245970696085 C265.19084710456343 633.6557971209162 264.9017871079585 632.5307970017069 264.33146709777327 631.7495970696085 C263.76896709777327 630.9683470696085 262.95646709777327 630.5776970356577 261.89396709777327 630.5776970356577 Z M261.89396709777327 627.0776970356577 C264.52676720000716 627.0776970356577 266.5853671488902 627.7925370305651 268.0658668933055 629.2182970017069 C269.5424669442317 630.6362969845408 270.2846669612071 632.6049969166392 270.2846669612071 635.1244969338053 C270.2846669612071 637.6361968487375 269.542476957812 639.6049971550577 268.0658668933055 641.0306968659037 C266.58536691047163 642.4486968487375 264.5267669615886 643.1556968659037 261.89396709777327 643.1556968659037 C259.2455670294902 643.1556968659037 257.1791672167918 642.4486668676012 255.6908668933055 641.0306968659037 C254.1986668763301 639.6048969000452 253.4564668593547 637.6361968487375 253.4564668593547 635.1244969338053 C253.4564668593547 632.6049969166392 254.19865686274977 630.6361970871561 255.6908668933055 629.2182970017069 C257.17916685916396 627.7924970358484 259.2455667910716 627.0776970356577 261.89396709777327 627.0776970356577 Z " id="s-Path_35-d1224"/>
      <path d="M273.8510481772562 627.4536964863414 L278.74164838172396 627.4536964863414 L278.74164838172396 642.4846966236705 C278.74164838172396 644.5354967087383 278.2455583868166 646.1018965214366 277.25724834777316 647.1877968281383 C276.2767783460756 648.2697968453044 274.85104841567477 648.8127968281383 272.97604841567477 648.8127968281383 L270.55414838172396 648.8127968281383 L270.55414838172396 645.5939967602367 L271.4135283885141 645.5939967602367 C272.3393083868166 645.5939967602367 272.9760283885141 645.3830567568416 273.3197284398218 644.9689967602367 C273.6712884364267 644.5510267585391 273.8509784398218 643.7228968113536 273.8509784398218 642.4845967262859 Z M273.8510481772562 621.4848964184398 L278.74164838172396 621.4848964184398 L278.74164838172396 625.4848964184398 L273.8510481772562 625.4848964184398 Z " id="s-Path_36-d1224"/>
      <path d="M298.7303051409861 635.0625965565318 L298.7303051409861 636.4687966078395 L287.27730507232155 636.4687966078395 C287.40230507232155 637.6171965569133 287.8163650689265 638.4765967100734 288.52730507232155 639.0468965738887 C289.234335070624 639.6211165755863 290.23040503837075 639.9062765806789 291.51170510627236 639.9062765806789 C292.54290515758004 639.9062765806789 293.5937051234385 639.7578365772838 294.66790503837075 639.453156587469 C295.7499050555369 639.140656587469 296.8593050894877 638.679716584074 297.99600500441994 638.0625566214198 L297.99600500441994 641.828156587469 C296.83980495311226 642.265656587469 295.68350500441994 642.5937765806789 294.52720493651833 642.8125365942592 C293.37100488521065 643.0390965908641 292.21470493651833 643.1562865942592 291.0584048686167 643.1562865942592 C288.28500480033364 643.1562865942592 286.1287049708506 642.4531666010494 284.5896048007151 641.0468865603084 C283.05840474940743 639.6406865090007 282.2927047667643 637.6679865091915 282.2927047667643 635.1249867647762 C282.2927047667643 632.6249867647762 283.0466147718569 630.6640869349117 284.5583047328135 629.2343865603084 C286.0661047158381 627.7968865603084 288.14030474997963 627.07818662821 290.7771048007151 627.07818662821 C293.1833047328135 627.07818662821 295.10910457946267 627.8086566299075 296.5583047328135 629.26568662821 C298.0036047158381 630.7148866623515 298.7302047667643 632.6484867304439 298.7302047667643 635.0625864237422 Z M293.6991052088877 633.4375965565318 C293.6991052088877 632.5118165582294 293.42566520549263 631.765696522581 292.8866052088877 631.203196522581 C292.3436352071902 630.6328865259761 291.6366052088877 630.3438165157909 290.7616052088877 630.3438165157909 C289.8123852071902 630.3438165157909 289.0428052601954 630.6094365090007 288.4491052088877 631.140696522581 C287.85540515758004 631.6719565361614 287.48426521398034 632.4375965565318 287.3397051749369 633.4375965565318 Z " id="s-Path_37-d1224"/>
      <path d="M314.8004917559763 627.937696692335 L314.8004917559763 631.9220967262858 C314.1442417559763 631.4650667279833 313.47629172183474 631.1252167194956 312.8004917559763 630.9064967602366 C312.13252175427874 630.6877467602366 311.4410917220255 630.5783767670267 310.7223917899271 630.5783767670267 C309.3551917729517 630.5783767670267 308.28879184104403 630.9807167619341 307.5192918238779 631.7814767330759 C306.75757182218035 632.5744467347735 306.3786918578287 633.6876767843836 306.3786918578287 635.1252768009775 C306.3786918578287 636.5549768179529 306.7576018629213 637.6682767838114 307.5192918238779 638.4690768688791 C308.28882182218035 639.2620468705767 309.3551917729517 639.6565768688791 310.7223917899271 639.6565768688791 C311.480201786532 639.6565768688791 312.2067918238779 639.5471968695396 312.8942918238779 639.3284568756693 C313.5817918238779 639.1018968790644 314.2145918069025 638.7620468705767 314.80049187518557 638.3128569096201 L314.80049187518557 642.3128569096201 C314.03877187348803 642.5941069096201 313.26139182425936 642.8011369079226 312.4723919091364 642.9378569096201 C311.6911419091364 643.0823869079226 310.89819187499484 643.1566069096201 310.0973919091364 643.1566069096201 C307.3356919942041 643.1566069096201 305.17549211360415 642.4495769113176 303.61299211360415 641.0316069096201 C302.05829209662875 639.6175068586939 301.28489214755496 637.6488068073862 301.28489214755496 635.1254069775217 C301.28489214755496 632.5942070454233 302.05833215095004 630.6215069264048 303.61299211360415 629.2035071819895 C305.17549211360415 627.7894071310633 307.3356922326227 627.0785071819895 310.0973919091364 627.0785071819895 C310.89817190743884 627.0785071819895 311.6911918578287 627.1527261853092 312.4723919091364 627.2972571819895 C313.2536419091364 627.433977183687 314.0270919261118 627.6488171785944 314.80049187518557 627.9378771751993 Z " id="s-Path_38-d1224"/>
      <path d="M324.37834209777327 623.1096966236705 L324.37834209777327 627.4534966915721 L329.4252418933055 627.4534966915721 L329.4252418933055 630.9534966915721 L324.37834209777327 630.9534966915721 L324.37834209777327 637.4534966915721 C324.37834209777327 638.1644366949672 324.5189620909831 638.6409966915721 324.80022210456343 638.8909966915721 C325.08148211814375 639.1409966915721 325.6361621079585 639.2659966915721 326.47212213851424 639.2659966915721 L328.98772210456343 639.2659966915721 L328.98772210456343 642.7659966915721 L324.80022210456343 642.7659966915721 C322.86272210456343 642.7659966915721 321.48772210456343 642.367556688177 320.67522210456343 641.5628967255229 C319.87053210116835 640.7503967255229 319.47212213851424 639.3831968277568 319.47212213851424 637.4534969299907 L319.47212213851424 630.9534969299907 L317.05022210456343 630.9534969299907 L317.05022210456343 627.4534969299907 L319.47212213851424 627.4534969299907 L319.47212213851424 623.1096968620891 Z " id="s-Path_39-d1224"/>
    </defs>
    <g>
      <use fill-opacity="1.0" fill="#363945" xmlns:xlink="http://www.w3.org/1999/xlink" xlink:href="#s-Path_1-d1224" xlink:type="simple" filter="none" xlink:actuate="onLoad" xlink:show="embed"/>
    </g>
    <g>
      <use fill-opacity="1.0" fill="#363945" xmlns:xlink="http://www.w3.org/1999/xlink" xlink:href="#s-Path_2-d1224" xlink:type="simple" filter="none" xlink:actuate="onLoad" xlink:show="embed"/>
    </g>
    <g>
      <use fill-opacity="1.0" fill="#363945" xmlns:xlink="http://www.w3.org/1999/xlink" xlink:href="#s-Path_3-d1224" xlink:type="simple" filter="none" xlink:actuate="onLoad" xlink:show="embed"/>
    </g>
    <g>
      <use fill-opacity="1.0" fill="#000000" xmlns:xlink="http://www.w3.org/1999/xlink" xlink:href="#s-Path_4-d1224" xlink:type="simple" filter="none" xlink:actuate="onLoad" xlink:show="embed"/>
    </g>
    <g>
      <use fill-opacity="1.0" fill="#000000" xmlns:xlink="http://www.w3.org/1999/xlink" xlink:href="#s-Path_5-d1224" xlink:type="simple" filter="none" xlink:actuate="onLoad" xlink:show="embed"/>
    </g>
    <g>
      <use fill-opacity="1.0" fill="#000000" xmlns:xlink="http://www.w3.org/1999/xlink" xlink:href="#s-Path_6-d1224" xlink:type="simple" filter="none" xlink:actuate="onLoad" xlink:show="embed"/>
    </g>
    <g>
      <use fill-opacity="1.0" fill="#000000" xmlns:xlink="http://www.w3.org/1999/xlink" xlink:href="#s-Path_7-d1224" xlink:type="simple" filter="none" xlink:actuate="onLoad" xlink:show="embed"/>
    </g>
    <g>
      <use fill-opacity="1.0" fill="#000000" xmlns:xlink="http://www.w3.org/1999/xlink" xlink:href="#s-Path_8-d1224" xlink:type="simple" filter="none" xlink:actuate="onLoad" xlink:show="embed"/>
    </g>
    <g>
      <use fill-opacity="1.0" fill="#000000" xmlns:xlink="http://www.w3.org/1999/xlink" xlink:href="#s-Path_9-d1224" xlink:type="simple" filter="none" xlink:actuate="onLoad" xlink:show="embed"/>
    </g>
    <g>
      <use fill-opacity="1.0" fill="#000000" xmlns:xlink="http://www.w3.org/1999/xlink" xlink:href="#s-Path_10-d1224" xlink:type="simple" filter="none" xlink:actuate="onLoad" xlink:show="embed"/>
    </g>
    <g>
      <use fill-opacity="1.0" fill="#000000" xmlns:xlink="http://www.w3.org/1999/xlink" xlink:href="#s-Path_11-d1224" xlink:type="simple" filter="none" xlink:actuate="onLoad" xlink:show="embed"/>
    </g>
    <g>
      <use fill-opacity="1.0" fill="#000000" xmlns:xlink="http://www.w3.org/1999/xlink" xlink:href="#s-Path_12-d1224" xlink:type="simple" filter="none" xlink:actuate="onLoad" xlink:show="embed"/>
    </g>
    <g>
      <use fill-opacity="1.0" fill="#000000" xmlns:xlink="http://www.w3.org/1999/xlink" xlink:href="#s-Path_13-d1224" xlink:type="simple" filter="none" xlink:actuate="onLoad" xlink:show="embed"/>
    </g>
    <g>
      <use fill-opacity="1.0" fill="#000000" xmlns:xlink="http://www.w3.org/1999/xlink" xlink:href="#s-Path_14-d1224" xlink:type="simple" filter="none" xlink:actuate="onLoad" xlink:show="embed"/>
    </g>
    <g>
      <use fill-opacity="1.0" fill="#000000" xmlns:xlink="http://www.w3.org/1999/xlink" xlink:href="#s-Path_15-d1224" xlink:type="simple" filter="none" xlink:actuate="onLoad" xlink:show="embed"/>
    </g>
    <g>
      <use fill-opacity="1.0" fill="#000000" xmlns:xlink="http://www.w3.org/1999/xlink" xlink:href="#s-Path_16-d1224" xlink:type="simple" filter="none" xlink:actuate="onLoad" xlink:show="embed"/>
    </g>
    <g>
      <use fill-opacity="1.0" fill="#000000" xmlns:xlink="http://www.w3.org/1999/xlink" xlink:href="#s-Path_17-d1224" xlink:type="simple" filter="none" xlink:actuate="onLoad" xlink:show="embed"/>
    </g>
    <g>
      <use fill-opacity="1.0" fill="#000000" xmlns:xlink="http://www.w3.org/1999/xlink" xlink:href="#s-Path_18-d1224" xlink:type="simple" filter="none" xlink:actuate="onLoad" xlink:show="embed"/>
    </g>
    <g>
      <use fill-opacity="1.0" fill="#000000" xmlns:xlink="http://www.w3.org/1999/xlink" xlink:href="#s-Path_19-d1224" xlink:type="simple" filter="none" xlink:actuate="onLoad" xlink:show="embed"/>
    </g>
    <g>
      <use fill-opacity="1.0" fill="#000000" xmlns:xlink="http://www.w3.org/1999/xlink" xlink:href="#s-Path_20-d1224" xlink:type="simple" filter="none" xlink:actuate="onLoad" xlink:show="embed"/>
    </g>
    <g>
      <use fill-opacity="1.0" fill="#000000" xmlns:xlink="http://www.w3.org/1999/xlink" xlink:href="#s-Path_21-d1224" xlink:type="simple" filter="none" xlink:actuate="onLoad" xlink:show="embed"/>
    </g>
    <g>
      <use fill-opacity="1.0" fill="#000000" xmlns:xlink="http://www.w3.org/1999/xlink" xlink:href="#s-Path_22-d1224" xlink:type="simple" filter="none" xlink:actuate="onLoad" xlink:show="embed"/>
    </g>
    <g>
      <use fill-opacity="1.0" fill="#000000" xmlns:xlink="http://www.w3.org/1999/xlink" xlink:href="#s-Path_23-d1224" xlink:type="simple" filter="none" xlink:actuate="onLoad" xlink:show="embed"/>
    </g>
    <g>
      <use fill-opacity="1.0" fill="#000000" xmlns:xlink="http://www.w3.org/1999/xlink" xlink:href="#s-Path_24-d1224" xlink:type="simple" filter="none" xlink:actuate="onLoad" xlink:show="embed"/>
    </g>
    <g>
      <use fill-opacity="1.0" fill="#000000" xmlns:xlink="http://www.w3.org/1999/xlink" xlink:href="#s-Path_25-d1224" xlink:type="simple" filter="none" xlink:actuate="onLoad" xlink:show="embed"/>
    </g>
    <g>
      <use fill-opacity="1.0" fill="#000000" xmlns:xlink="http://www.w3.org/1999/xlink" xlink:href="#s-Path_26-d1224" xlink:type="simple" filter="none" xlink:actuate="onLoad" xlink:show="embed"/>
    </g>
    <g>
      <use fill-opacity="1.0" fill="#000000" xmlns:xlink="http://www.w3.org/1999/xlink" xlink:href="#s-Path_27-d1224" xlink:type="simple" filter="none" xlink:actuate="onLoad" xlink:show="embed"/>
    </g>
    <g>
      <use fill-opacity="1.0" fill="#000000" xmlns:xlink="http://www.w3.org/1999/xlink" xlink:href="#s-Path_28-d1224" xlink:type="simple" filter="none" xlink:actuate="onLoad" xlink:show="embed"/>
    </g>
    <g>
      <use fill-opacity="1.0" fill="#000000" xmlns:xlink="http://www.w3.org/1999/xlink" xlink:href="#s-Path_29-d1224" xlink:type="simple" filter="none" xlink:actuate="onLoad" xlink:show="embed"/>
    </g>
    <g>
      <use fill-opacity="1.0" fill="#000000" xmlns:xlink="http://www.w3.org/1999/xlink" xlink:href="#s-Path_30-d1224" xlink:type="simple" filter="none" xlink:actuate="onLoad" xlink:show="embed"/>
    </g>
    <g>
      <use fill-opacity="1.0" fill="#000000" xmlns:xlink="http://www.w3.org/1999/xlink" xlink:href="#s-Path_31-d1224" xlink:type="simple" filter="none" xlink:actuate="onLoad" xlink:show="embed"/>
    </g>
    <g>
      <use fill-opacity="1.0" fill="#000000" xmlns:xlink="http://www.w3.org/1999/xlink" xlink:href="#s-Path_32-d1224" xlink:type="simple" filter="none" xlink:actuate="onLoad" xlink:show="embed"/>
    </g>
    <g>
      <use fill-opacity="1.0" fill="#000000" xmlns:xlink="http://www.w3.org/1999/xlink" xlink:href="#s-Path_33-d1224" xlink:type="simple" filter="none" xlink:actuate="onLoad" xlink:show="embed"/>
    </g>
    <g>
      <use fill-opacity="1.0" fill="#000000" xmlns:xlink="http://www.w3.org/1999/xlink" xlink:href="#s-Path_34-d1224" xlink:type="simple" filter="none" xlink:actuate="onLoad" xlink:show="embed"/>
    </g>
    <g>
      <use fill-opacity="1.0" fill="#000000" xmlns:xlink="http://www.w3.org/1999/xlink" xlink:href="#s-Path_35-d1224" xlink:type="simple" filter="none" xlink:actuate="onLoad" xlink:show="embed"/>
    </g>
    <g>
      <use fill-opacity="1.0" fill="#000000" xmlns:xlink="http://www.w3.org/1999/xlink" xlink:href="#s-Path_36-d1224" xlink:type="simple" filter="none" xlink:actuate="onLoad" xlink:show="embed"/>
    </g>
    <g>
      <use fill-opacity="1.0" fill="#000000" xmlns:xlink="http://www.w3.org/1999/xlink" xlink:href="#s-Path_37-d1224" xlink:type="simple" filter="none" xlink:actuate="onLoad" xlink:show="embed"/>
    </g>
    <g>
      <use fill-opacity="1.0" fill="#000000" xmlns:xlink="http://www.w3.org/1999/xlink" xlink:href="#s-Path_38-d1224" xlink:type="simple" filter="none" xlink:actuate="onLoad" xlink:show="embed"/>
    </g>
    <g>
      <use fill-opacity="1.0" fill="#000000" xmlns:xlink="http://www.w3.org/1999/xlink" xlink:href="#s-Path_39-d1224" xlink:type="simple" filter="none" xlink:actuate="onLoad" xlink:show="embed"/>
    </g>
  </g>
</svg>